<?xml version="1.0" encoding="utf-8"?>
<!-- Generator: Adobe Illustrator 19.1.0, SVG Export Plug-In . SVG Version: 6.00 Build 0)  -->
<svg version="1.1" id="Layer_1" xmlns="http://www.w3.org/2000/svg" xmlns:xlink="http://www.w3.org/1999/xlink" x="0px" y="0px"
	 width="145px" height="40px" viewBox="-227 281 145 40" style="enable-background:new -227 281 145 40;" xml:space="preserve">
<style type="text/css">
	.st0{fill:#D9E4EA;stroke:#7DA9BE;}
	.st1{opacity:0.85;fill:#005B7F;enable-background:new    ;}
	.st2{opacity:0.65;fill:#00263C;enable-background:new    ;}
	.st3{opacity:0.75;fill:#6C6941;enable-background:new    ;}
	.st4{opacity:0.85;fill:#A5C2D5;enable-background:new    ;}
	.st5{fill:#FFFFFF;}
</style>
<path class="st0" d="M-205.4,304"/>
<path class="st1" d="M-198.4,295.1c2.7,0.9,7.7,4.7,8.2,5.2c1.5,1.4,2,2.2,3.1,5.3c0.8,2.4,0.1,4.6-0.4,5.4
	c-0.4,0.8-0.6,1.4-2.6,2.6c-2,1.3-7.1,5-10.2,5.3c-1.8,0.2-3.7,0.5-6.5-2.1c-3.5-3.3-3.4-8.7-3.4-8.7s-0.2-5.4,4.4-10.4
	C-205.9,297.6-202.8,293.6-198.4,295.1z"/>
<path class="st2" d="M-221.5,312.3c1-5.3,4.1-9.8,5-10.4c0.6-0.4,1.2-1.1,3.7-0.6c2.7,0.5,6.9,4.4,7.5,5.1c0.7,0.7,2.1,2.8,2.7,5.1
	s-1.4,3.8-1.4,3.8s-7.7,4.9-7.7,4.9c0,0-3,1.6-5.9-0.1C-220.6,318.4-222.4,315.3-221.5,312.3z"/>
<path class="st3" d="M-212.5,284.7c0,0,5.9-3.4,7.4-3.5c1.4-0.1,2.4-0.6,4.9,0.9s3.6,4.6,3.6,4.6s1.2,3,1.3,5.1
	c0,2.5-1.1,7.5-5.4,10.2c0,0-1.2,0.8-3.1,0.6c-1.9-0.2-7.6-2.3-10.4-5.1C-216.9,294.7-217.5,287.7-212.5,284.7z"/>
<path class="st4" d="M-227,298.4c1.1-8,6.1-10.7,6.9-11.2c0.6-0.4,2.1-1,4.6-0.6c2.7,0.5,8.5,5.1,9.2,5.8c0.7,0.7,2,2.7,2.5,5.1
	c0.9,5.3-0.9,6.2-5.2,8.9c-2.9,1.8-4.5,2.7-4.6,2.7c-0.6,0.3-5.3,2.8-8.7,0.1C-225.5,306.8-227.2,302.7-227,298.4z"/>
<g>
	<g>
		<path class="st5" d="M-180.7,306l0.9-0.2c0.5,2,1.9,3,3.9,3c2.1,0,3.5-1.1,3.5-2.7c0-1.5-0.6-2.2-3.7-3.2c-3-0.9-4.2-1.8-4.2-3.8
			c0-1.8,1.6-3.3,4-3.3c2.4,0,3.8,1.3,4.4,3.1l-0.9,0.3c-0.6-1.9-1.8-2.6-3.5-2.6c-1.9,0-3.1,1.1-3.1,2.4c0,1.6,0.9,2.1,3.9,3.1
			c2.8,0.9,4,1.9,4,3.9c0,2.2-2,3.5-4.4,3.5C-178.4,309.5-180.1,308.2-180.7,306z"/>
		<path class="st5" d="M-168.9,307.2v-6.5h-1.6v-0.8h1.6v-3.4h0.9v3.4h2.5v0.8h-2.5v6.4c0,1,0.3,1.6,1.5,1.6c0.4,0,0.7,0,1-0.1v0.8
			c-0.3,0.1-0.7,0.1-1.1,0.1C-168.1,309.4-168.9,308.8-168.9,307.2z"/>
		<path class="st5" d="M-163.5,299.9h0.9v2h0c0.8-1.2,2-2.2,3.9-2.2h0.3l-0.1,0.8h-0.3c-1.6,0-2.9,0.9-3.7,2.6v6.2h-0.9
			C-163.5,309.3-163.5,299.9-163.5,299.9z"/>
		<path class="st5" d="M-158.3,304.6c0-3.3,2-4.9,4-4.9c2.2,0,3.7,1.9,3.7,4.8v0.1h-6.9c0,2.6,1.4,4.1,3.2,4.1c1.5,0,2.3-0.7,3-2
			l0.6,0.4c-0.8,1.4-1.9,2.3-3.7,2.3C-156.5,309.5-158.3,307.7-158.3,304.6z M-151.5,303.9c-0.1-1.9-1-3.5-2.8-3.5
			c-1.5,0-2.9,1.1-3.1,3.5H-151.5z"/>
		<path class="st5" d="M-149.2,307.1c0-1.8,1.5-3.1,6.5-4v-0.6c0-1.4-0.8-2.1-2-2.1c-1.6,0-2.6,0.6-3.7,1.6l-0.5-0.5
			c1.2-1.1,2.4-1.8,4.2-1.8c2,0,2.9,1.1,2.9,2.8v4.4c0,1.1,0.1,1.8,0.3,2.3h-0.9c-0.1-0.4-0.2-0.9-0.2-1.4c-1.1,1-2.4,1.6-3.8,1.6
			C-148.2,309.5-149.2,308.6-149.2,307.1z M-142.7,307.1v-3.2c-4.6,0.8-5.6,1.9-5.6,3.3c0,1.1,0.7,1.6,1.9,1.6
			C-145,308.7-143.8,308.1-142.7,307.1z"/>
		<path class="st5" d="M-139.6,299.9h0.9v1.6c1-1,2.2-1.8,3.5-1.8c1.6,0,2.3,0.7,2.6,1.8c1.1-1,2.3-1.8,3.6-1.8
			c1.9,0,2.7,1.1,2.7,2.8v6.8h-0.9v-6.7c0-1.4-0.5-2.1-2-2.1c-1.2,0-2.3,0.7-3.4,1.8v7.1h-0.9v-6.7c0-1.4-0.5-2.1-2-2.1
			c-1.2,0-2.3,0.7-3.4,1.8v7.1h-0.9L-139.6,299.9L-139.6,299.9z"/>
		<path class="st5" d="M-124,296h4.4c3.1,0,4.4,1.4,4.4,3.3c0,1.8-1.2,2.8-2.6,3.1v0c1.6,0.3,3,1.4,3,3.2c0,2-1.3,3.6-4.5,3.6h-4.9
			C-124,309.3-124,296-124,296z M-119.6,302.1c2.3,0,3.6-0.8,3.6-2.6c0-1.8-1.1-2.6-3.6-2.6h-3.5v5.2H-119.6z M-119.1,308.5
			c2.4,0,3.5-1,3.5-2.8c0-1.9-1.6-2.8-4-2.8h-3.6v5.6C-123.1,308.5-119.1,308.5-119.1,308.5z"/>
		<path class="st5" d="M-113.3,307.1c0-1.8,1.5-3.1,6.5-4v-0.6c0-1.4-0.8-2.1-2-2.1c-1.6,0-2.6,0.6-3.7,1.6l-0.5-0.5
			c1.2-1.1,2.4-1.8,4.2-1.8c2,0,2.9,1.1,2.9,2.8v4.4c0,1.1,0.1,1.8,0.3,2.3h-0.9c-0.1-0.4-0.2-0.9-0.2-1.4c-1.1,1-2.4,1.6-3.8,1.6
			C-112.3,309.5-113.3,308.6-113.3,307.1z M-106.8,307.1v-3.2c-4.6,0.8-5.6,1.9-5.6,3.3c0,1.1,0.7,1.6,1.9,1.6
			C-109.1,308.7-107.9,308.1-106.8,307.1z"/>
		<path class="st5" d="M-103.7,299.9h0.9v1.6c1-1,2.3-1.8,3.6-1.8c2,0,2.8,1.1,2.8,2.8v6.8h-0.9v-6.7c0-1.4-0.6-2.1-2.1-2.1
			c-1.3,0-2.4,0.7-3.6,1.8v7.1h-0.9V299.9z"/>
		<path class="st5" d="M-94.2,296h0.9v9.2l4.9-5.3h1.1l-3.1,3.3l3.5,6.1h-1l-3.1-5.5l-2.2,2.4v3.1h-0.9L-94.2,296L-94.2,296z"/>
	</g>
	<g>
		<path class="st5" d="M-86.3,300.1c0-0.9,0.7-1.6,1.6-1.6c0.9,0,1.6,0.7,1.6,1.6c0,0.9-0.7,1.6-1.6,1.6
			C-85.5,301.8-86.3,301-86.3,300.1z M-83.2,300.1c0-0.8-0.6-1.5-1.4-1.5c-0.8,0-1.4,0.7-1.4,1.5c0,0.8,0.6,1.5,1.4,1.5
			C-83.8,301.6-83.2,300.9-83.2,300.1z M-85.2,299.2h0.6c0.4,0,0.6,0.2,0.6,0.5c0,0.3-0.2,0.4-0.4,0.5l0.4,0.8h-0.2l-0.4-0.8H-85
			c0,0.1,0,0.8,0,0.8c0,0-0.2,0-0.2,0C-85.2,301-85.2,299.2-85.2,299.2z M-84.6,300c0.3,0,0.4-0.1,0.4-0.3c0-0.2-0.2-0.3-0.4-0.3
			H-85v0.6H-84.6z"/>
	</g>
</g>
</svg>
